<?xml version="1.0" encoding="utf-8" standalone="no"?>
<!DOCTYPE svg PUBLIC "-//W3C//DTD SVG 1.1//EN"
  "http://www.w3.org/Graphics/SVG/1.1/DTD/svg11.dtd">
<svg xmlns:xlink="http://www.w3.org/1999/xlink" width="371.52pt" height="256.690418pt" viewBox="0 0 371.52 256.690418" xmlns="http://www.w3.org/2000/svg" version="1.1">
 <metadata>
  <rdf:RDF xmlns:dc="http://purl.org/dc/elements/1.1/" xmlns:cc="http://creativecommons.org/ns#" xmlns:rdf="http://www.w3.org/1999/02/22-rdf-syntax-ns#">
   <cc:Work>
    <dc:type rdf:resource="http://purl.org/dc/dcmitype/StillImage"/>
    <dc:date>2022-04-29T14:02:39.293274</dc:date>
    <dc:format>image/svg+xml</dc:format>
    <dc:creator>
     <cc:Agent>
      <dc:title>Matplotlib v3.5.1, https://matplotlib.org/</dc:title>
     </cc:Agent>
    </dc:creator>
   </cc:Work>
  </rdf:RDF>
 </metadata>
 <defs>
  <style type="text/css">*{stroke-linejoin: round; stroke-linecap: butt}</style>
 </defs>
 <g id="figure_1">
  <g id="patch_1">
   <path d="M 0 256.690418 
L 371.52 256.690418 
L 371.52 0 
L 0 0 
z
" style="fill: #ffffff"/>
  </g>
  <g id="axes_1">
   <g id="patch_2">
    <path d="M 123.177878 248.342122 
C 153.631039 248.342122 182.841017 236.242953 204.374654 214.709316 
C 225.908291 193.17568 238.00746 163.965701 238.00746 133.51254 
C 238.00746 103.059379 225.908291 73.849401 204.374654 52.315764 
C 182.841017 30.782127 153.631039 18.682958 123.177878 18.682958 
C 92.724717 18.682958 63.514738 30.782127 41.981102 52.315764 
C 20.447465 73.849401 8.348296 103.059379 8.348296 133.51254 
C 8.348296 163.965701 20.447465 193.17568 41.981102 214.709316 
C 63.514738 236.242953 92.724717 248.342122 123.177878 248.342122 
z
" clip-path="url(#pf2d20253f0)" style="fill: #000080; stroke: #000080; stroke-linejoin: miter"/>
   </g>
   <g id="patch_3">
    <path d="M 123.177878 248.571781 
C 153.691945 248.571781 182.960343 236.448414 204.537047 214.87171 
C 226.113751 193.295006 238.237119 164.026608 238.237119 133.51254 
C 238.237119 102.998473 226.113751 73.730075 204.537047 52.153371 
C 182.960343 30.576667 153.691945 18.453299 123.177878 18.453299 
C 92.66381 18.453299 63.395412 30.576667 41.818708 52.153371 
C 20.242004 73.730075 8.118637 102.998473 8.118637 133.51254 
C 8.118637 164.026608 20.242004 193.295006 41.818708 214.87171 
C 63.395412 236.448414 92.66381 248.571781 123.177878 248.571781 
L 123.177878 248.571781 
z
" clip-path="url(#pf2d20253f0)" style="fill: none; stroke: #000000; stroke-width: 0.6; stroke-linejoin: miter"/>
   </g>
   <g id="patch_4">
    <path d="M 123.177878 248.342122 
C 137.349317 248.342122 150.942239 242.71175 160.96296 232.691029 
C 170.983681 222.670308 176.614054 209.077386 176.614054 194.905946 
C 176.614054 180.734506 170.983681 167.141585 160.96296 157.120863 
C 150.942239 147.100142 137.349317 141.46977 123.177878 141.46977 
C 109.006438 141.46977 95.413516 147.100142 85.392795 157.120863 
C 75.372074 167.141585 69.741702 180.734506 69.741702 194.905946 
C 69.741702 209.077386 75.372074 222.670308 85.392795 232.691029 
C 95.413516 242.71175 109.006438 248.342122 123.177878 248.342122 
z
" clip-path="url(#pf2d20253f0)" style="fill: #7575b0; stroke: #7575b0; stroke-linejoin: miter"/>
   </g>
   <g id="patch_5">
    <path d="M 123.177878 248.571781 
C 137.410224 248.571781 151.061566 242.91721 161.125354 232.853422 
C 171.189142 222.789634 176.843713 209.138292 176.843713 194.905946 
C 176.843713 180.6736 171.189142 167.022258 161.125354 156.95847 
C 151.061566 146.894682 137.410224 141.240111 123.177878 141.240111 
C 108.945532 141.240111 95.29419 146.894682 85.230402 156.95847 
C 75.166613 167.022258 69.512042 180.6736 69.512042 194.905946 
C 69.512042 209.138292 75.166613 222.789634 85.230402 232.853422 
C 95.29419 242.91721 108.945532 248.571781 123.177878 248.571781 
L 123.177878 248.571781 
z
" clip-path="url(#pf2d20253f0)" style="fill: none; stroke: #000000; stroke-width: 0.6; stroke-linejoin: miter"/>
   </g>
   <g id="patch_6">
    <path d="M 123.177878 248.342122 
C 136.564811 248.342122 149.405253 243.023437 158.871245 233.557446 
C 168.337236 224.091454 173.655921 211.251012 173.655921 197.864079 
C 173.655921 184.477145 168.337236 171.636703 158.871245 162.170712 
C 149.405253 152.70472 136.564811 147.386035 123.177878 147.386035 
C 109.790944 147.386035 96.950503 152.70472 87.484511 162.170712 
C 78.018519 171.636703 72.699834 184.477145 72.699834 197.864079 
C 72.699834 211.251012 78.018519 224.091454 87.484511 233.557446 
C 96.950503 243.023437 109.790944 248.342122 123.177878 248.342122 
z
" clip-path="url(#pf2d20253f0)" style="fill: #7b7bb3; stroke: #7b7bb3; stroke-linejoin: miter"/>
   </g>
   <g id="patch_7">
    <path d="M 123.177878 248.571781 
C 136.625718 248.571781 149.524579 243.228898 159.033638 233.719839 
C 168.542697 224.21078 173.88558 211.311919 173.88558 197.864079 
C 173.88558 184.416239 168.542697 171.517377 159.033638 162.008318 
C 149.524579 152.499259 136.625718 147.156376 123.177878 147.156376 
C 109.730038 147.156376 96.831176 152.499259 87.322117 162.008318 
C 77.813059 171.517377 72.470175 184.416239 72.470175 197.864079 
C 72.470175 211.311919 77.813059 224.21078 87.322117 233.719839 
C 96.831176 243.228898 109.730038 248.571781 123.177878 248.571781 
L 123.177878 248.571781 
z
" clip-path="url(#pf2d20253f0)" style="fill: none; stroke: #000000; stroke-width: 0.6; stroke-linejoin: miter"/>
   </g>
   <g id="patch_8">
    <path d="M 123.177878 248.342122 
C 130.315766 248.342122 137.162266 245.506209 142.209515 240.45896 
C 147.256764 235.411711 150.092678 228.565211 150.092678 221.427322 
C 150.092678 214.289434 147.256764 207.442934 142.209515 202.395685 
C 137.162266 197.348436 130.315766 194.512523 123.177878 194.512523 
C 116.039989 194.512523 109.19349 197.348436 104.14624 202.395685 
C 99.098991 207.442934 96.263078 214.289434 96.263078 221.427322 
C 96.263078 228.565211 99.098991 235.411711 104.14624 240.45896 
C 109.19349 245.506209 116.039989 248.342122 123.177878 248.342122 
z
" clip-path="url(#pf2d20253f0)" style="fill: #a8a8c6; stroke: #a8a8c6; stroke-linejoin: miter"/>
   </g>
   <g id="patch_9">
    <path d="M 123.177878 248.571781 
C 130.376672 248.571781 137.281592 245.71167 142.371909 240.621353 
C 147.462225 235.531037 150.322337 228.626117 150.322337 221.427322 
C 150.322337 214.228528 147.462225 207.323608 142.371909 202.233291 
C 137.281592 197.142975 130.376672 194.282864 123.177878 194.282864 
C 115.979083 194.282864 109.074163 197.142975 103.983847 202.233291 
C 98.89353 207.323608 96.033419 214.228528 96.033419 221.427322 
C 96.033419 228.626117 98.89353 235.531037 103.983847 240.621353 
C 109.074163 245.71167 115.979083 248.571781 123.177878 248.571781 
L 123.177878 248.571781 
z
" clip-path="url(#pf2d20253f0)" style="fill: none; stroke: #000000; stroke-width: 0.6; stroke-linejoin: miter"/>
   </g>
   <g id="patch_10">
    <path d="M 123.177878 248.342122 
C 127.571217 248.342122 131.785208 246.59663 134.891768 243.49007 
C 137.998328 240.38351 139.74382 236.169519 139.74382 231.77618 
C 139.74382 227.382841 137.998328 223.16885 134.891768 220.06229 
C 131.785208 216.95573 127.571217 215.210238 123.177878 215.210238 
C 118.784539 215.210238 114.570548 216.95573 111.463988 220.06229 
C 108.357428 223.16885 106.611936 227.382841 106.611936 231.77618 
C 106.611936 236.169519 108.357428 240.38351 111.463988 243.49007 
C 114.570548 246.59663 118.784539 248.342122 123.177878 248.342122 
z
" clip-path="url(#pf2d20253f0)" style="fill: #bcbcce; stroke: #bcbcce; stroke-linejoin: miter"/>
   </g>
   <g id="patch_11">
    <path d="M 123.177878 248.571781 
C 127.632123 248.571781 131.904534 246.802091 135.054161 243.652464 
C 138.203788 240.502837 139.973479 236.230426 139.973479 231.77618 
C 139.973479 227.321935 138.203788 223.049524 135.054161 219.899897 
C 131.904534 216.75027 127.632123 214.980579 123.177878 214.980579 
C 118.723632 214.980579 114.451222 216.75027 111.301594 219.899897 
C 108.151967 223.049524 106.382277 227.321935 106.382277 231.77618 
C 106.382277 236.230426 108.151967 240.502837 111.301594 243.652464 
C 114.451222 246.802091 118.723632 248.571781 123.177878 248.571781 
L 123.177878 248.571781 
z
" clip-path="url(#pf2d20253f0)" style="fill: none; stroke: #000000; stroke-width: 0.6; stroke-linejoin: miter"/>
   </g>
   <g id="patch_12">
    <path d="M 123.177878 248.342122 
C 124.46104 248.342122 125.69182 247.832316 126.599152 246.924984 
C 127.506485 246.017651 128.016291 244.786871 128.016291 243.503709 
C 128.016291 242.220547 127.506485 240.989767 126.599152 240.082435 
C 125.69182 239.175102 124.46104 238.665296 123.177878 238.665296 
C 121.894716 238.665296 120.663936 239.175102 119.756603 240.082435 
C 118.849271 240.989767 118.339465 242.220547 118.339465 243.503709 
C 118.339465 244.786871 118.849271 246.017651 119.756603 246.924984 
C 120.663936 247.832316 121.894716 248.342122 123.177878 248.342122 
z
" clip-path="url(#pf2d20253f0)" style="fill: #d3d3d8; stroke: #d3d3d8; stroke-linejoin: miter"/>
   </g>
   <g id="patch_13">
    <path d="M 123.177878 248.571781 
C 124.521946 248.571781 125.811146 248.037777 126.761546 247.087377 
C 127.711946 246.136978 128.24595 244.847778 128.24595 243.503709 
C 128.24595 242.159641 127.711946 240.870441 126.761546 239.920041 
C 125.811146 238.969641 124.521946 238.435637 123.177878 238.435637 
C 121.833809 238.435637 120.54461 238.969641 119.59421 239.920041 
C 118.64381 240.870441 118.109806 242.159641 118.109806 243.503709 
C 118.109806 244.847778 118.64381 246.136978 119.59421 247.087377 
C 120.54461 248.037777 121.833809 248.571781 123.177878 248.571781 
L 123.177878 248.571781 
z
" clip-path="url(#pf2d20253f0)" style="fill: none; stroke: #000000; stroke-width: 0.6; stroke-linejoin: miter"/>
   </g>
   <g id="LineCollection_1">
    <path d="M 123.177878 18.453299 
L 295.422251 18.453299 
" clip-path="url(#pf2d20253f0)" style="fill: none; stroke: #000000; stroke-width: 0.6"/>
   </g>
   <g id="LineCollection_2">
    <path d="M 123.177878 141.240111 
L 295.422251 141.240111 
" clip-path="url(#pf2d20253f0)" style="fill: none; stroke: #000000; stroke-width: 0.6"/>
   </g>
   <g id="LineCollection_3">
    <path d="M 123.177878 147.156376 
L 295.422251 147.156376 
" clip-path="url(#pf2d20253f0)" style="fill: none; stroke: #000000; stroke-width: 0.6"/>
   </g>
   <g id="LineCollection_4">
    <path d="M 123.177878 194.282864 
L 295.422251 194.282864 
" clip-path="url(#pf2d20253f0)" style="fill: none; stroke: #000000; stroke-width: 0.6"/>
   </g>
   <g id="LineCollection_5">
    <path d="M 123.177878 214.980579 
L 295.422251 214.980579 
" clip-path="url(#pf2d20253f0)" style="fill: none; stroke: #000000; stroke-width: 0.6"/>
   </g>
   <g id="LineCollection_6">
    <path d="M 123.177878 238.435637 
L 295.422251 238.435637 
" clip-path="url(#pf2d20253f0)" style="fill: none; stroke: #000000; stroke-width: 0.6"/>
   </g>
  </g>
 </g>
 <defs>
  <clipPath id="pf2d20253f0">
   <rect x="7.2" y="7.2" width="357.12" height="242.290418"/>
  </clipPath>
 </defs>
</svg>
