<?xml version="1.0" encoding="utf-8" standalone="no"?>
<!DOCTYPE svg PUBLIC "-//W3C//DTD SVG 1.1//EN"
  "http://www.w3.org/Graphics/SVG/1.1/DTD/svg11.dtd">
<svg xmlns:xlink="http://www.w3.org/1999/xlink" width="371.52pt" height="237.6pt" viewBox="0 0 371.52 237.6" xmlns="http://www.w3.org/2000/svg" version="1.1">
 <metadata>
  <rdf:RDF xmlns:dc="http://purl.org/dc/elements/1.1/" xmlns:cc="http://creativecommons.org/ns#" xmlns:rdf="http://www.w3.org/1999/02/22-rdf-syntax-ns#">
   <cc:Work>
    <dc:type rdf:resource="http://purl.org/dc/dcmitype/StillImage"/>
    <dc:date>2022-04-29T13:22:40.255566</dc:date>
    <dc:format>image/svg+xml</dc:format>
    <dc:creator>
     <cc:Agent>
      <dc:title>Matplotlib v3.5.1, https://matplotlib.org/</dc:title>
     </cc:Agent>
    </dc:creator>
   </cc:Work>
  </rdf:RDF>
 </metadata>
 <defs>
  <style type="text/css">*{stroke-linejoin: round; stroke-linecap: butt}</style>
 </defs>
 <g id="figure_1">
  <g id="patch_1">
   <path d="M 0 237.6 
L 371.52 237.6 
L 371.52 0 
L 0 0 
z
" style="fill: #ffffff"/>
  </g>
  <g id="axes_1">
   <g id="patch_2">
    <path d="M 96.48 208.08 
C 120.157333 208.08 142.868091 198.672896 159.610493 181.930493 
C 176.352896 165.188091 185.76 142.477333 185.76 118.8 
C 185.76 95.122667 176.352896 72.411909 159.610493 55.669507 
C 142.868091 38.927104 120.157333 29.52 96.48 29.52 
C 72.802667 29.52 50.091909 38.927104 33.349507 55.669507 
C 16.607104 72.411909 7.2 95.122667 7.2 118.8 
C 7.2 142.477333 16.607104 165.188091 33.349507 181.930493 
C 50.091909 198.672896 72.802667 208.08 96.48 208.08 
z
" clip-path="url(#p1e48f04310)" style="fill: #000080; stroke: #000080; stroke-linejoin: miter"/>
   </g>
   <g id="patch_3">
    <path d="M 96.48 208.08 
C 120.157333 208.08 142.868091 198.672896 159.610493 181.930493 
C 176.352896 165.188091 185.76 142.477333 185.76 118.8 
C 185.76 95.122667 176.352896 72.411909 159.610493 55.669507 
C 142.868091 38.927104 120.157333 29.52 96.48 29.52 
C 72.802667 29.52 50.091909 38.927104 33.349507 55.669507 
C 16.607104 72.411909 7.2 95.122667 7.2 118.8 
C 7.2 142.477333 16.607104 165.188091 33.349507 181.930493 
C 50.091909 198.672896 72.802667 208.08 96.48 208.08 
L 96.48 208.08 
z
" clip-path="url(#p1e48f04310)" style="fill: none; stroke: #000000; stroke-width: 0.6; stroke-linejoin: miter"/>
   </g>
   <g id="patch_4">
    <path d="M 96.48 208.08 
C 117.53585 208.08 137.732141 199.714422 152.620875 184.825688 
C 167.509609 169.936954 175.875187 149.740663 175.875187 128.684813 
C 175.875187 107.628964 167.509609 87.432673 152.620875 72.543939 
C 137.732141 57.655205 117.53585 49.289627 96.48 49.289627 
C 75.42415 49.289627 55.227859 57.655205 40.339125 72.543939 
C 25.450391 87.432673 17.084813 107.628964 17.084813 128.684813 
C 17.084813 149.740663 25.450391 169.936954 40.339125 184.825688 
C 55.227859 199.714422 75.42415 208.08 96.48 208.08 
z
" clip-path="url(#p1e48f04310)" style="fill: #18188a; stroke: #18188a; stroke-linejoin: miter"/>
   </g>
   <g id="patch_5">
    <path d="M 96.48 208.08 
C 117.53585 208.08 137.732141 199.714422 152.620875 184.825688 
C 167.509609 169.936954 175.875187 149.740663 175.875187 128.684813 
C 175.875187 107.628964 167.509609 87.432673 152.620875 72.543939 
C 137.732141 57.655205 117.53585 49.289627 96.48 49.289627 
C 75.42415 49.289627 55.227859 57.655205 40.339125 72.543939 
C 25.450391 87.432673 17.084813 107.628964 17.084813 128.684813 
C 17.084813 149.740663 25.450391 169.936954 40.339125 184.825688 
C 55.227859 199.714422 75.42415 208.08 96.48 208.08 
L 96.48 208.08 
z
" clip-path="url(#p1e48f04310)" style="fill: none; stroke: #000000; stroke-width: 0.6; stroke-linejoin: miter"/>
   </g>
   <g id="patch_6">
    <path d="M 96.48 208.08 
C 114.042062 208.08 130.887192 201.102519 143.305446 188.684265 
C 155.723699 176.266012 162.701181 159.420882 162.701181 141.858819 
C 162.701181 124.296757 155.723699 107.451627 143.305446 95.033373 
C 130.887192 82.61512 114.042062 75.637639 96.48 75.637639 
C 78.917938 75.637639 62.072808 82.61512 49.654554 95.033373 
C 37.236301 107.451627 30.258819 124.296757 30.258819 141.858819 
C 30.258819 159.420882 37.236301 176.266012 49.654554 188.684265 
C 62.072808 201.102519 78.917938 208.08 96.48 208.08 
z
" clip-path="url(#p1e48f04310)" style="fill: #393997; stroke: #393997; stroke-linejoin: miter"/>
   </g>
   <g id="patch_7">
    <path d="M 96.48 208.08 
C 114.042062 208.08 130.887192 201.102519 143.305446 188.684265 
C 155.723699 176.266012 162.701181 159.420882 162.701181 141.858819 
C 162.701181 124.296757 155.723699 107.451627 143.305446 95.033373 
C 130.887192 82.61512 114.042062 75.637639 96.48 75.637639 
C 78.917938 75.637639 62.072808 82.61512 49.654554 95.033373 
C 37.236301 107.451627 30.258819 124.296757 30.258819 141.858819 
C 30.258819 159.420882 37.236301 176.266012 49.654554 188.684265 
C 62.072808 201.102519 78.917938 208.08 96.48 208.08 
L 96.48 208.08 
z
" clip-path="url(#p1e48f04310)" style="fill: none; stroke: #000000; stroke-width: 0.6; stroke-linejoin: miter"/>
   </g>
   <g id="patch_8">
    <path d="M 96.48 208.08 
C 112.953352 208.08 128.754215 201.535068 140.402634 189.886649 
C 152.051053 178.238231 158.595985 162.437367 158.595985 145.964015 
C 158.595985 129.490663 152.051053 113.6898 140.402634 102.041381 
C 128.754215 90.392962 112.953352 83.84803 96.48 83.84803 
C 80.006648 83.84803 64.205785 90.392962 52.557366 102.041381 
C 40.908947 113.6898 34.364015 129.490663 34.364015 145.964015 
C 34.364015 162.437367 40.908947 178.238231 52.557366 189.886649 
C 64.205785 201.535068 80.006648 208.08 96.48 208.08 
z
" clip-path="url(#p1e48f04310)" style="fill: #42429b; stroke: #42429b; stroke-linejoin: miter"/>
   </g>
   <g id="patch_9">
    <path d="M 96.48 208.08 
C 112.953352 208.08 128.754215 201.535068 140.402634 189.886649 
C 152.051053 178.238231 158.595985 162.437367 158.595985 145.964015 
C 158.595985 129.490663 152.051053 113.6898 140.402634 102.041381 
C 128.754215 90.392962 112.953352 83.84803 96.48 83.84803 
C 80.006648 83.84803 64.205785 90.392962 52.557366 102.041381 
C 40.908947 113.6898 34.364015 129.490663 34.364015 145.964015 
C 34.364015 162.437367 40.908947 178.238231 52.557366 189.886649 
C 64.205785 201.535068 80.006648 208.08 96.48 208.08 
L 96.48 208.08 
z
" clip-path="url(#p1e48f04310)" style="fill: none; stroke: #000000; stroke-width: 0.6; stroke-linejoin: miter"/>
   </g>
   <g id="patch_10">
    <path d="M 96.48 208.08 
C 109.930435 208.08 122.831787 202.736085 132.342681 193.225191 
C 141.853575 183.714297 147.197489 170.812946 147.197489 157.362511 
C 147.197489 143.912075 141.853575 131.010724 132.342681 121.49983 
C 122.831787 111.988936 109.930435 106.645022 96.48 106.645022 
C 83.029565 106.645022 70.128213 111.988936 60.617319 121.49983 
C 51.106425 131.010724 45.762511 143.912075 45.762511 157.362511 
C 45.762511 170.812946 51.106425 183.714297 60.617319 193.225191 
C 70.128213 202.736085 83.029565 208.08 96.48 208.08 
z
" clip-path="url(#p1e48f04310)" style="fill: #5f5fa7; stroke: #5f5fa7; stroke-linejoin: miter"/>
   </g>
   <g id="patch_11">
    <path d="M 96.48 208.08 
C 109.930435 208.08 122.831787 202.736085 132.342681 193.225191 
C 141.853575 183.714297 147.197489 170.812946 147.197489 157.362511 
C 147.197489 143.912075 141.853575 131.010724 132.342681 121.49983 
C 122.831787 111.988936 109.930435 106.645022 96.48 106.645022 
C 83.029565 106.645022 70.128213 111.988936 60.617319 121.49983 
C 51.106425 131.010724 45.762511 143.912075 45.762511 157.362511 
C 45.762511 170.812946 51.106425 183.714297 60.617319 193.225191 
C 70.128213 202.736085 83.029565 208.08 96.48 208.08 
L 96.48 208.08 
z
" clip-path="url(#p1e48f04310)" style="fill: none; stroke: #000000; stroke-width: 0.6; stroke-linejoin: miter"/>
   </g>
   <g id="patch_12">
    <path d="M 96.48 208.08 
C 108.805759 208.08 120.628347 203.182924 129.343975 194.467296 
C 138.059603 185.751668 142.956679 173.92908 142.956679 161.603321 
C 142.956679 149.277562 138.059603 137.454974 129.343975 128.739346 
C 120.628347 120.023718 108.805759 115.126642 96.48 115.126642 
C 84.154241 115.126642 72.331653 120.023718 63.616025 128.739346 
C 54.900397 137.454974 50.003321 149.277562 50.003321 161.603321 
C 50.003321 173.92908 54.900397 185.751668 63.616025 194.467296 
C 72.331653 203.182924 84.154241 208.08 96.48 208.08 
z
" clip-path="url(#p1e48f04310)" style="fill: #6969ab; stroke: #6969ab; stroke-linejoin: miter"/>
   </g>
   <g id="patch_13">
    <path d="M 96.48 208.08 
C 108.805759 208.08 120.628347 203.182924 129.343975 194.467296 
C 138.059603 185.751668 142.956679 173.92908 142.956679 161.603321 
C 142.956679 149.277562 138.059603 137.454974 129.343975 128.739346 
C 120.628347 120.023718 108.805759 115.126642 96.48 115.126642 
C 84.154241 115.126642 72.331653 120.023718 63.616025 128.739346 
C 54.900397 137.454974 50.003321 149.277562 50.003321 161.603321 
C 50.003321 173.92908 54.900397 185.751668 63.616025 194.467296 
C 72.331653 203.182924 84.154241 208.08 96.48 208.08 
L 96.48 208.08 
z
" clip-path="url(#p1e48f04310)" style="fill: none; stroke: #000000; stroke-width: 0.6; stroke-linejoin: miter"/>
   </g>
   <g id="patch_14">
    <path d="M 96.48 208.08 
C 105.569017 208.08 114.286994 204.468895 120.7139 198.04199 
C 127.140805 191.615085 130.75191 182.897107 130.75191 173.80809 
C 130.75191 164.719074 127.140805 156.001096 120.7139 149.574191 
C 114.286994 143.147285 105.569017 139.536181 96.48 139.536181 
C 87.390983 139.536181 78.673006 143.147285 72.2461 149.574191 
C 65.819195 156.001096 62.20809 164.719074 62.20809 173.80809 
C 62.20809 182.897107 65.819195 191.615085 72.2461 198.04199 
C 78.673006 204.468895 87.390983 208.08 96.48 208.08 
z
" clip-path="url(#p1e48f04310)" style="fill: #8787b8; stroke: #8787b8; stroke-linejoin: miter"/>
   </g>
   <g id="patch_15">
    <path d="M 96.48 208.08 
C 105.569017 208.08 114.286994 204.468895 120.7139 198.04199 
C 127.140805 191.615085 130.75191 182.897107 130.75191 173.80809 
C 130.75191 164.719074 127.140805 156.001096 120.7139 149.574191 
C 114.286994 143.147285 105.569017 139.536181 96.48 139.536181 
C 87.390983 139.536181 78.673006 143.147285 72.2461 149.574191 
C 65.819195 156.001096 62.20809 164.719074 62.20809 173.80809 
C 62.20809 182.897107 65.819195 191.615085 72.2461 198.04199 
C 78.673006 204.468895 87.390983 208.08 96.48 208.08 
L 96.48 208.08 
z
" clip-path="url(#p1e48f04310)" style="fill: none; stroke: #000000; stroke-width: 0.6; stroke-linejoin: miter"/>
   </g>
   <g id="patch_16">
    <path d="M 96.48 208.08 
C 103.861885 208.08 110.942422 205.147146 116.162203 199.927365 
C 121.381984 194.707583 124.314838 187.627047 124.314838 180.245162 
C 124.314838 172.863276 121.381984 165.78274 116.162203 160.562959 
C 110.942422 155.343177 103.861885 152.410323 96.48 152.410323 
C 89.098115 152.410323 82.017578 155.343177 76.797797 160.562959 
C 71.578016 165.78274 68.645162 172.863276 68.645162 180.245162 
C 68.645162 187.627047 71.578016 194.707583 76.797797 199.927365 
C 82.017578 205.147146 89.098115 208.08 96.48 208.08 
z
" clip-path="url(#p1e48f04310)" style="fill: #9797bf; stroke: #9797bf; stroke-linejoin: miter"/>
   </g>
   <g id="patch_17">
    <path d="M 96.48 208.08 
C 103.861885 208.08 110.942422 205.147146 116.162203 199.927365 
C 121.381984 194.707583 124.314838 187.627047 124.314838 180.245162 
C 124.314838 172.863276 121.381984 165.78274 116.162203 160.562959 
C 110.942422 155.343177 103.861885 152.410323 96.48 152.410323 
C 89.098115 152.410323 82.017578 155.343177 76.797797 160.562959 
C 71.578016 165.78274 68.645162 172.863276 68.645162 180.245162 
C 68.645162 187.627047 71.578016 194.707583 76.797797 199.927365 
C 82.017578 205.147146 89.098115 208.08 96.48 208.08 
L 96.48 208.08 
z
" clip-path="url(#p1e48f04310)" style="fill: none; stroke: #000000; stroke-width: 0.6; stroke-linejoin: miter"/>
   </g>
   <g id="patch_18">
    <path d="M 96.48 208.08 
C 97.071933 208.08 97.639702 207.844822 98.058262 207.426262 
C 98.476822 207.007702 98.712 206.439933 98.712 205.848 
C 98.712 205.256067 98.476822 204.688298 98.058262 204.269738 
C 97.639702 203.851178 97.071933 203.616 96.48 203.616 
C 95.888067 203.616 95.320298 203.851178 94.901738 204.269738 
C 94.483178 204.688298 94.248 205.256067 94.248 205.848 
C 94.248 206.439933 94.483178 207.007702 94.901738 207.426262 
C 95.320298 207.844822 95.888067 208.08 96.48 208.08 
z
" clip-path="url(#p1e48f04310)" style="stroke: #000000; stroke-width: 0.5; stroke-linejoin: miter"/>
   </g>
   <g id="LineCollection_1">
    <path d="M 96.48 29.52 
L 230.4 29.52 
" clip-path="url(#p1e48f04310)" style="fill: none; stroke: #000000; stroke-width: 0.4"/>
   </g>
   <g id="LineCollection_2">
    <path d="M 96.48 49.289627 
L 230.4 49.289627 
" clip-path="url(#p1e48f04310)" style="fill: none; stroke: #000000; stroke-width: 0.4"/>
   </g>
   <g id="LineCollection_3">
    <path d="M 96.48 75.637639 
L 230.4 75.637639 
" clip-path="url(#p1e48f04310)" style="fill: none; stroke: #000000; stroke-width: 0.4"/>
   </g>
   <g id="LineCollection_4">
    <path d="M 96.48 83.84803 
L 230.4 83.84803 
" clip-path="url(#p1e48f04310)" style="fill: none; stroke: #000000; stroke-width: 0.4"/>
   </g>
   <g id="LineCollection_5">
    <path d="M 96.48 106.645022 
L 230.4 106.645022 
" clip-path="url(#p1e48f04310)" style="fill: none; stroke: #000000; stroke-width: 0.4"/>
   </g>
   <g id="LineCollection_6">
    <path d="M 96.48 115.126642 
L 230.4 115.126642 
" clip-path="url(#p1e48f04310)" style="fill: none; stroke: #000000; stroke-width: 0.4"/>
   </g>
   <g id="LineCollection_7">
    <path d="M 96.48 139.536181 
L 230.4 139.536181 
" clip-path="url(#p1e48f04310)" style="fill: none; stroke: #000000; stroke-width: 0.4"/>
   </g>
   <g id="LineCollection_8">
    <path d="M 96.48 152.410323 
L 230.4 152.410323 
" clip-path="url(#p1e48f04310)" style="fill: none; stroke: #000000; stroke-width: 0.4"/>
   </g>
   <g id="LineCollection_9">
    <path d="M 96.48 203.616 
L 230.4 203.616 
" clip-path="url(#p1e48f04310)" style="fill: none; stroke: #000000; stroke-width: 0.5"/>
   </g>
  </g>
 </g>
 <defs>
  <clipPath id="p1e48f04310">
   <rect x="7.2" y="7.2" width="357.12" height="223.2"/>
  </clipPath>
 </defs>
</svg>
