<?xml version="1.0" encoding="utf-8" standalone="no"?>
<!DOCTYPE svg PUBLIC "-//W3C//DTD SVG 1.1//EN"
  "http://www.w3.org/Graphics/SVG/1.1/DTD/svg11.dtd">
<svg xmlns:xlink="http://www.w3.org/1999/xlink" width="371.52pt" height="237.6pt" viewBox="0 0 371.52 237.6" xmlns="http://www.w3.org/2000/svg" version="1.1">
 <metadata>
  <rdf:RDF xmlns:dc="http://purl.org/dc/elements/1.1/" xmlns:cc="http://creativecommons.org/ns#" xmlns:rdf="http://www.w3.org/1999/02/22-rdf-syntax-ns#">
   <cc:Work>
    <dc:type rdf:resource="http://purl.org/dc/dcmitype/StillImage"/>
    <dc:date>2022-04-29T13:22:39.208386</dc:date>
    <dc:format>image/svg+xml</dc:format>
    <dc:creator>
     <cc:Agent>
      <dc:title>Matplotlib v3.5.1, https://matplotlib.org/</dc:title>
     </cc:Agent>
    </dc:creator>
   </cc:Work>
  </rdf:RDF>
 </metadata>
 <defs>
  <style type="text/css">*{stroke-linejoin: round; stroke-linecap: butt}</style>
 </defs>
 <g id="figure_1">
  <g id="patch_1">
   <path d="M 0 237.6 
L 371.52 237.6 
L 371.52 0 
L 0 0 
z
" style="fill: #ffffff"/>
  </g>
  <g id="axes_1">
   <g id="patch_2">
    <path d="M 96.48 208.08 
C 120.157333 208.08 142.868091 198.672896 159.610493 181.930493 
C 176.352896 165.188091 185.76 142.477333 185.76 118.8 
C 185.76 95.122667 176.352896 72.411909 159.610493 55.669507 
C 142.868091 38.927104 120.157333 29.52 96.48 29.52 
C 72.802667 29.52 50.091909 38.927104 33.349507 55.669507 
C 16.607104 72.411909 7.2 95.122667 7.2 118.8 
C 7.2 142.477333 16.607104 165.188091 33.349507 181.930493 
C 50.091909 198.672896 72.802667 208.08 96.48 208.08 
z
" clip-path="url(#pb81b4878f7)" style="fill: #000080; stroke: #000080; stroke-linejoin: miter"/>
   </g>
   <g id="patch_3">
    <path d="M 96.48 208.08 
C 120.157333 208.08 142.868091 198.672896 159.610493 181.930493 
C 176.352896 165.188091 185.76 142.477333 185.76 118.8 
C 185.76 95.122667 176.352896 72.411909 159.610493 55.669507 
C 142.868091 38.927104 120.157333 29.52 96.48 29.52 
C 72.802667 29.52 50.091909 38.927104 33.349507 55.669507 
C 16.607104 72.411909 7.2 95.122667 7.2 118.8 
C 7.2 142.477333 16.607104 165.188091 33.349507 181.930493 
C 50.091909 198.672896 72.802667 208.08 96.48 208.08 
L 96.48 208.08 
z
" clip-path="url(#pb81b4878f7)" style="fill: none; stroke: #000000; stroke-width: 0.6; stroke-linejoin: miter"/>
   </g>
   <g id="patch_4">
    <path d="M 96.48 208.08 
C 107.498294 208.08 118.066791 203.702385 125.857902 195.911275 
C 133.649012 188.120164 138.026627 177.551667 138.026627 166.533373 
C 138.026627 155.515079 133.649012 144.946582 125.857902 137.155471 
C 118.066791 129.364361 107.498294 124.986746 96.48 124.986746 
C 85.461706 124.986746 74.893209 129.364361 67.102098 137.155471 
C 59.310988 144.946582 54.933373 155.515079 54.933373 166.533373 
C 54.933373 177.551667 59.310988 188.120164 67.102098 195.911275 
C 74.893209 203.702385 85.461706 208.08 96.48 208.08 
z
" clip-path="url(#pb81b4878f7)" style="fill: #7575b0; stroke: #7575b0; stroke-linejoin: miter"/>
   </g>
   <g id="patch_5">
    <path d="M 96.48 208.08 
C 107.498294 208.08 118.066791 203.702385 125.857902 195.911275 
C 133.649012 188.120164 138.026627 177.551667 138.026627 166.533373 
C 138.026627 155.515079 133.649012 144.946582 125.857902 137.155471 
C 118.066791 129.364361 107.498294 124.986746 96.48 124.986746 
C 85.461706 124.986746 74.893209 129.364361 67.102098 137.155471 
C 59.310988 144.946582 54.933373 155.515079 54.933373 166.533373 
C 54.933373 177.551667 59.310988 188.120164 67.102098 195.911275 
C 74.893209 203.702385 85.461706 208.08 96.48 208.08 
L 96.48 208.08 
z
" clip-path="url(#pb81b4878f7)" style="fill: none; stroke: #000000; stroke-width: 0.6; stroke-linejoin: miter"/>
   </g>
   <g id="patch_6">
    <path d="M 96.48 208.08 
C 106.888341 208.08 116.871784 203.944722 124.231593 196.584914 
C 131.591401 189.225105 135.726679 179.241662 135.726679 168.833321 
C 135.726679 158.42498 131.591401 148.441537 124.231593 141.081728 
C 116.871784 133.72192 106.888341 129.586642 96.48 129.586642 
C 86.071659 129.586642 76.088216 133.72192 68.728407 141.081728 
C 61.368599 148.441537 57.233321 158.42498 57.233321 168.833321 
C 57.233321 179.241662 61.368599 189.225105 68.728407 196.584914 
C 76.088216 203.944722 86.071659 208.08 96.48 208.08 
z
" clip-path="url(#pb81b4878f7)" style="fill: #7b7bb3; stroke: #7b7bb3; stroke-linejoin: miter"/>
   </g>
   <g id="patch_7">
    <path d="M 96.48 208.08 
C 106.888341 208.08 116.871784 203.944722 124.231593 196.584914 
C 131.591401 189.225105 135.726679 179.241662 135.726679 168.833321 
C 135.726679 158.42498 131.591401 148.441537 124.231593 141.081728 
C 116.871784 133.72192 106.888341 129.586642 96.48 129.586642 
C 86.071659 129.586642 76.088216 133.72192 68.728407 141.081728 
C 61.368599 148.441537 57.233321 158.42498 57.233321 168.833321 
C 57.233321 179.241662 61.368599 189.225105 68.728407 196.584914 
C 76.088216 203.944722 86.071659 208.08 96.48 208.08 
L 96.48 208.08 
z
" clip-path="url(#pb81b4878f7)" style="fill: none; stroke: #000000; stroke-width: 0.6; stroke-linejoin: miter"/>
   </g>
   <g id="patch_8">
    <path d="M 96.48 208.08 
C 102.029708 208.08 107.352862 205.875078 111.277098 201.950841 
C 115.201334 198.026605 117.406257 192.703451 117.406257 187.153743 
C 117.406257 181.604035 115.201334 176.280881 111.277098 172.356645 
C 107.352862 168.432409 102.029708 166.227486 96.48 166.227486 
C 90.930292 166.227486 85.607138 168.432409 81.682902 172.356645 
C 77.758666 176.280881 75.553743 181.604035 75.553743 187.153743 
C 75.553743 192.703451 77.758666 198.026605 81.682902 201.950841 
C 85.607138 205.875078 90.930292 208.08 96.48 208.08 
z
" clip-path="url(#pb81b4878f7)" style="fill: #a8a8c6; stroke: #a8a8c6; stroke-linejoin: miter"/>
   </g>
   <g id="patch_9">
    <path d="M 96.48 208.08 
C 102.029708 208.08 107.352862 205.875078 111.277098 201.950841 
C 115.201334 198.026605 117.406257 192.703451 117.406257 187.153743 
C 117.406257 181.604035 115.201334 176.280881 111.277098 172.356645 
C 107.352862 168.432409 102.029708 166.227486 96.48 166.227486 
C 90.930292 166.227486 85.607138 168.432409 81.682902 172.356645 
C 77.758666 176.280881 75.553743 181.604035 75.553743 187.153743 
C 75.553743 192.703451 77.758666 198.026605 81.682902 201.950841 
C 85.607138 205.875078 90.930292 208.08 96.48 208.08 
L 96.48 208.08 
z
" clip-path="url(#pb81b4878f7)" style="fill: none; stroke: #000000; stroke-width: 0.6; stroke-linejoin: miter"/>
   </g>
   <g id="patch_10">
    <path d="M 96.48 208.08 
C 99.895821 208.08 103.172199 206.72288 105.587549 204.30753 
C 108.0029 201.892179 109.36002 198.615801 109.36002 195.19998 
C 109.36002 191.784159 108.0029 188.507781 105.587549 186.092431 
C 103.172199 183.67708 99.895821 182.31996 96.48 182.31996 
C 93.064179 182.31996 89.787801 183.67708 87.372451 186.092431 
C 84.9571 188.507781 83.59998 191.784159 83.59998 195.19998 
C 83.59998 198.615801 84.9571 201.892179 87.372451 204.30753 
C 89.787801 206.72288 93.064179 208.08 96.48 208.08 
z
" clip-path="url(#pb81b4878f7)" style="fill: #bcbcce; stroke: #bcbcce; stroke-linejoin: miter"/>
   </g>
   <g id="patch_11">
    <path d="M 96.48 208.08 
C 99.895821 208.08 103.172199 206.72288 105.587549 204.30753 
C 108.0029 201.892179 109.36002 198.615801 109.36002 195.19998 
C 109.36002 191.784159 108.0029 188.507781 105.587549 186.092431 
C 103.172199 183.67708 99.895821 182.31996 96.48 182.31996 
C 93.064179 182.31996 89.787801 183.67708 87.372451 186.092431 
C 84.9571 188.507781 83.59998 191.784159 83.59998 195.19998 
C 83.59998 198.615801 84.9571 201.892179 87.372451 204.30753 
C 89.787801 206.72288 93.064179 208.08 96.48 208.08 
L 96.48 208.08 
z
" clip-path="url(#pb81b4878f7)" style="fill: none; stroke: #000000; stroke-width: 0.6; stroke-linejoin: miter"/>
   </g>
   <g id="patch_12">
    <path d="M 96.48 208.08 
C 97.477659 208.08 98.43459 207.683626 99.140041 206.978175 
C 99.845492 206.272724 100.241866 205.315793 100.241866 204.318134 
C 100.241866 203.320475 99.845492 202.363544 99.140041 201.658093 
C 98.43459 200.952642 97.477659 200.556268 96.48 200.556268 
C 95.482341 200.556268 94.52541 200.952642 93.819959 201.658093 
C 93.114508 202.363544 92.718134 203.320475 92.718134 204.318134 
C 92.718134 205.315793 93.114508 206.272724 93.819959 206.978175 
C 94.52541 207.683626 95.482341 208.08 96.48 208.08 
z
" clip-path="url(#pb81b4878f7)" style="fill: #d3d3d8; stroke: #d3d3d8; stroke-linejoin: miter"/>
   </g>
   <g id="patch_13">
    <path d="M 96.48 208.08 
C 97.477659 208.08 98.43459 207.683626 99.140041 206.978175 
C 99.845492 206.272724 100.241866 205.315793 100.241866 204.318134 
C 100.241866 203.320475 99.845492 202.363544 99.140041 201.658093 
C 98.43459 200.952642 97.477659 200.556268 96.48 200.556268 
C 95.482341 200.556268 94.52541 200.952642 93.819959 201.658093 
C 93.114508 202.363544 92.718134 203.320475 92.718134 204.318134 
C 92.718134 205.315793 93.114508 206.272724 93.819959 206.978175 
C 94.52541 207.683626 95.482341 208.08 96.48 208.08 
L 96.48 208.08 
z
" clip-path="url(#pb81b4878f7)" style="fill: none; stroke: #000000; stroke-width: 0.6; stroke-linejoin: miter"/>
   </g>
   <g id="LineCollection_1">
    <path d="M 96.48 29.52 
L 230.4 29.52 
" clip-path="url(#pb81b4878f7)" style="fill: none; stroke: #000000; stroke-width: 0.4"/>
   </g>
   <g id="LineCollection_2">
    <path d="M 96.48 124.986746 
L 230.4 124.986746 
" clip-path="url(#pb81b4878f7)" style="fill: none; stroke: #000000; stroke-width: 0.4"/>
   </g>
   <g id="LineCollection_3">
    <path d="M 96.48 129.586642 
L 230.4 129.586642 
" clip-path="url(#pb81b4878f7)" style="fill: none; stroke: #000000; stroke-width: 0.4"/>
   </g>
   <g id="LineCollection_4">
    <path d="M 96.48 166.227486 
L 230.4 166.227486 
" clip-path="url(#pb81b4878f7)" style="fill: none; stroke: #000000; stroke-width: 0.4"/>
   </g>
   <g id="LineCollection_5">
    <path d="M 96.48 182.31996 
L 230.4 182.31996 
" clip-path="url(#pb81b4878f7)" style="fill: none; stroke: #000000; stroke-width: 0.4"/>
   </g>
   <g id="LineCollection_6">
    <path d="M 96.48 200.556268 
L 230.4 200.556268 
" clip-path="url(#pb81b4878f7)" style="fill: none; stroke: #000000; stroke-width: 0.4"/>
   </g>
  </g>
 </g>
 <defs>
  <clipPath id="pb81b4878f7">
   <rect x="7.2" y="7.2" width="357.12" height="223.2"/>
  </clipPath>
 </defs>
</svg>
