<?xml version="1.0" encoding="utf-8" standalone="no"?>
<!DOCTYPE svg PUBLIC "-//W3C//DTD SVG 1.1//EN"
  "http://www.w3.org/Graphics/SVG/1.1/DTD/svg11.dtd">
<svg xmlns:xlink="http://www.w3.org/1999/xlink" width="371.52pt" height="256.690418pt" viewBox="0 0 371.52 256.690418" xmlns="http://www.w3.org/2000/svg" version="1.1">
 <metadata>
  <rdf:RDF xmlns:dc="http://purl.org/dc/elements/1.1/" xmlns:cc="http://creativecommons.org/ns#" xmlns:rdf="http://www.w3.org/1999/02/22-rdf-syntax-ns#">
   <cc:Work>
    <dc:type rdf:resource="http://purl.org/dc/dcmitype/StillImage"/>
    <dc:date>2022-04-29T14:02:40.845574</dc:date>
    <dc:format>image/svg+xml</dc:format>
    <dc:creator>
     <cc:Agent>
      <dc:title>Matplotlib v3.5.1, https://matplotlib.org/</dc:title>
     </cc:Agent>
    </dc:creator>
   </cc:Work>
  </rdf:RDF>
 </metadata>
 <defs>
  <style type="text/css">*{stroke-linejoin: round; stroke-linecap: butt}</style>
 </defs>
 <g id="figure_1">
  <g id="patch_1">
   <path d="M 0 256.690418 
L 371.52 256.690418 
L 371.52 0 
L 0 0 
z
" style="fill: #ffffff"/>
  </g>
  <g id="axes_1">
   <g id="patch_2">
    <path d="M 123.177878 248.342122 
C 153.631039 248.342122 182.841017 236.242953 204.374654 214.709316 
C 225.908291 193.17568 238.00746 163.965701 238.00746 133.51254 
C 238.00746 103.059379 225.908291 73.849401 204.374654 52.315764 
C 182.841017 30.782127 153.631039 18.682958 123.177878 18.682958 
C 92.724717 18.682958 63.514738 30.782127 41.981102 52.315764 
C 20.447465 73.849401 8.348296 103.059379 8.348296 133.51254 
C 8.348296 163.965701 20.447465 193.17568 41.981102 214.709316 
C 63.514738 236.242953 92.724717 248.342122 123.177878 248.342122 
z
" clip-path="url(#pa983906315)" style="fill: #000080; stroke: #000080; stroke-linejoin: miter"/>
   </g>
   <g id="patch_3">
    <path d="M 123.177878 248.571781 
C 153.691945 248.571781 182.960343 236.448414 204.537047 214.87171 
C 226.113751 193.295006 238.237119 164.026608 238.237119 133.51254 
C 238.237119 102.998473 226.113751 73.730075 204.537047 52.153371 
C 182.960343 30.576667 153.691945 18.453299 123.177878 18.453299 
C 92.66381 18.453299 63.395412 30.576667 41.818708 52.153371 
C 20.242004 73.730075 8.118637 102.998473 8.118637 133.51254 
C 8.118637 164.026608 20.242004 193.295006 41.818708 214.87171 
C 63.395412 236.448414 92.66381 248.571781 123.177878 248.571781 
L 123.177878 248.571781 
z
" clip-path="url(#pa983906315)" style="fill: none; stroke: #000000; stroke-width: 0.6; stroke-linejoin: miter"/>
   </g>
   <g id="patch_4">
    <path d="M 123.177878 248.342122 
C 150.259356 248.342122 176.235294 237.582537 195.384791 218.43304 
C 214.534288 199.283542 225.293873 173.307605 225.293873 146.226127 
C 225.293873 119.144648 214.534288 93.168711 195.384791 74.019214 
C 176.235294 54.869716 150.259356 44.110131 123.177878 44.110131 
C 96.096399 44.110131 70.120462 54.869716 50.970965 74.019214 
C 31.821468 93.168711 21.061882 119.144648 21.061882 146.226127 
C 21.061882 173.307605 31.821468 199.283542 50.970965 218.43304 
C 70.120462 237.582537 96.096399 248.342122 123.177878 248.342122 
z
" clip-path="url(#pa983906315)" style="fill: #18188a; stroke: #18188a; stroke-linejoin: miter"/>
   </g>
   <g id="patch_5">
    <path d="M 123.177878 248.571781 
C 150.320263 248.571781 176.35462 237.787998 195.547184 218.595433 
C 214.739749 199.402869 225.523533 173.368511 225.523533 146.226127 
C 225.523533 119.083742 214.739749 93.049384 195.547184 73.85682 
C 176.35462 54.664256 150.320263 43.880472 123.177878 43.880472 
C 96.035493 43.880472 70.001136 54.664256 50.808571 73.85682 
C 31.616007 93.049384 20.832223 119.083742 20.832223 146.226127 
C 20.832223 173.368511 31.616007 199.402869 50.808571 218.595433 
C 70.001136 237.787998 96.035493 248.571781 123.177878 248.571781 
L 123.177878 248.571781 
z
" clip-path="url(#pa983906315)" style="fill: none; stroke: #000000; stroke-width: 0.6; stroke-linejoin: miter"/>
   </g>
   <g id="patch_6">
    <path d="M 123.177878 248.342122 
C 145.765739 248.342122 167.431502 239.36787 183.403532 223.39584 
C 199.375562 207.423809 208.349814 185.758047 208.349814 163.170186 
C 208.349814 140.582324 199.375562 118.916562 183.403532 102.944532 
C 167.431502 86.972502 145.765739 77.998249 123.177878 77.998249 
C 100.590016 77.998249 78.924254 86.972502 62.952224 102.944532 
C 46.980194 118.916562 38.005941 140.582324 38.005941 163.170186 
C 38.005941 185.758047 46.980194 207.423809 62.952224 223.39584 
C 78.924254 239.36787 100.590016 248.342122 123.177878 248.342122 
z
" clip-path="url(#pa983906315)" style="fill: #393997; stroke: #393997; stroke-linejoin: miter"/>
   </g>
   <g id="patch_7">
    <path d="M 123.177878 248.571781 
C 145.826646 248.571781 167.550828 239.57333 183.565925 223.558233 
C 199.581023 207.543136 208.579473 185.818954 208.579473 163.170186 
C 208.579473 140.521418 199.581023 118.797236 183.565925 102.782138 
C 167.550828 86.767041 145.826646 77.76859 123.177878 77.76859 
C 100.52911 77.76859 78.804928 86.767041 62.78983 102.782138 
C 46.774733 118.797236 37.776282 140.521418 37.776282 163.170186 
C 37.776282 185.818954 46.774733 207.543136 62.78983 223.558233 
C 78.804928 239.57333 100.52911 248.571781 123.177878 248.571781 
L 123.177878 248.571781 
z
" clip-path="url(#pa983906315)" style="fill: none; stroke: #000000; stroke-width: 0.6; stroke-linejoin: miter"/>
   </g>
   <g id="patch_8">
    <path d="M 123.177878 248.342122 
C 144.365468 248.342122 164.688123 239.924203 179.670012 224.942314 
C 194.651901 209.960425 203.06982 189.637771 203.06982 168.45018 
C 203.06982 147.26259 194.651901 126.939935 179.670012 111.958046 
C 164.688123 96.976157 144.365468 88.558238 123.177878 88.558238 
C 101.990287 88.558238 81.667633 96.976157 66.685744 111.958046 
C 51.703855 126.939935 43.285936 147.26259 43.285936 168.45018 
C 43.285936 189.637771 51.703855 209.960425 66.685744 224.942314 
C 81.667633 239.924203 101.990287 248.342122 123.177878 248.342122 
z
" clip-path="url(#pa983906315)" style="fill: #42429b; stroke: #42429b; stroke-linejoin: miter"/>
   </g>
   <g id="patch_9">
    <path d="M 123.177878 248.571781 
C 144.426375 248.571781 164.807449 240.129664 179.832405 225.104708 
C 194.857362 210.079751 203.299479 189.698677 203.299479 168.45018 
C 203.299479 147.201683 194.857362 126.820609 179.832405 111.795653 
C 164.807449 96.770697 144.426375 88.328579 123.177878 88.328579 
C 101.929381 88.328579 81.548307 96.770697 66.52335 111.795653 
C 51.498394 126.820609 43.056277 147.201683 43.056277 168.45018 
C 43.056277 189.698677 51.498394 210.079751 66.52335 225.104708 
C 81.548307 240.129664 101.929381 248.571781 123.177878 248.571781 
L 123.177878 248.571781 
z
" clip-path="url(#pa983906315)" style="fill: none; stroke: #000000; stroke-width: 0.6; stroke-linejoin: miter"/>
   </g>
   <g id="patch_10">
    <path d="M 123.177878 248.342122 
C 140.477473 248.342122 157.070851 241.46892 169.303512 229.236259 
C 181.536173 217.003598 188.409375 200.41022 188.409375 183.110625 
C 188.409375 165.811029 181.536173 149.217652 169.303512 136.984991 
C 157.070851 124.752329 140.477473 117.879127 123.177878 117.879127 
C 105.878282 117.879127 89.284905 124.752329 77.052244 136.984991 
C 64.819582 149.217652 57.94638 165.811029 57.94638 183.110625 
C 57.94638 200.41022 64.819582 217.003598 77.052244 229.236259 
C 89.284905 241.46892 105.878282 248.342122 123.177878 248.342122 
z
" clip-path="url(#pa983906315)" style="fill: #5f5fa7; stroke: #5f5fa7; stroke-linejoin: miter"/>
   </g>
   <g id="patch_11">
    <path d="M 123.177878 248.571781 
C 140.538379 248.571781 157.190177 241.674381 169.465906 229.398652 
C 181.741634 217.122924 188.639034 200.471126 188.639034 183.110625 
C 188.639034 165.750123 181.741634 149.098326 169.465906 136.822597 
C 157.190177 124.546869 140.538379 117.649468 123.177878 117.649468 
C 105.817376 117.649468 89.165579 124.546869 76.88985 136.822597 
C 64.614122 149.098326 57.716721 165.750123 57.716721 183.110625 
C 57.716721 200.471126 64.614122 217.122924 76.88985 229.398652 
C 89.165579 241.674381 105.817376 248.571781 123.177878 248.571781 
L 123.177878 248.571781 
z
" clip-path="url(#pa983906315)" style="fill: none; stroke: #000000; stroke-width: 0.6; stroke-linejoin: miter"/>
   </g>
   <g id="patch_12">
    <path d="M 123.177878 248.342122 
C 139.030945 248.342122 154.236845 242.043632 165.446656 230.833821 
C 176.656467 219.62401 182.954957 204.41811 182.954957 188.565043 
C 182.954957 172.711976 176.656467 157.506076 165.446656 146.296265 
C 154.236845 135.086454 139.030945 128.787964 123.177878 128.787964 
C 107.324811 128.787964 92.118911 135.086454 80.9091 146.296265 
C 69.699289 157.506076 63.400799 172.711976 63.400799 188.565043 
C 63.400799 204.41811 69.699289 219.62401 80.9091 230.833821 
C 92.118911 242.043632 107.324811 248.342122 123.177878 248.342122 
z
" clip-path="url(#pa983906315)" style="fill: #6969ab; stroke: #6969ab; stroke-linejoin: miter"/>
   </g>
   <g id="patch_13">
    <path d="M 123.177878 248.571781 
C 139.091851 248.571781 154.356171 242.249093 165.609049 230.996215 
C 176.861928 219.743336 183.184616 204.479016 183.184616 188.565043 
C 183.184616 172.65107 176.861928 157.38675 165.609049 146.133871 
C 154.356171 134.880993 139.091851 128.558305 123.177878 128.558305 
C 107.263905 128.558305 91.999584 134.880993 80.746706 146.133871 
C 69.493828 157.38675 63.171139 172.65107 63.171139 188.565043 
C 63.171139 204.479016 69.493828 219.743336 80.746706 230.996215 
C 91.999584 242.249093 107.263905 248.571781 123.177878 248.571781 
L 123.177878 248.571781 
z
" clip-path="url(#pa983906315)" style="fill: none; stroke: #000000; stroke-width: 0.6; stroke-linejoin: miter"/>
   </g>
   <g id="patch_14">
    <path d="M 123.177878 248.342122 
C 134.867931 248.342122 146.080764 243.697615 154.346881 235.431498 
C 162.612997 227.165382 167.257504 215.952549 167.257504 204.262496 
C 167.257504 192.572442 162.612997 181.359609 154.346881 173.093493 
C 146.080764 164.827377 134.867931 160.182869 123.177878 160.182869 
C 111.487824 160.182869 100.274991 164.827377 92.008875 173.093493 
C 83.742759 181.359609 79.098251 192.572442 79.098251 204.262496 
C 79.098251 215.952549 83.742759 227.165382 92.008875 235.431498 
C 100.274991 243.697615 111.487824 248.342122 123.177878 248.342122 
z
" clip-path="url(#pa983906315)" style="fill: #8787b8; stroke: #8787b8; stroke-linejoin: miter"/>
   </g>
   <g id="patch_15">
    <path d="M 123.177878 248.571781 
C 134.928838 248.571781 146.200091 243.903075 154.509274 235.593892 
C 162.818458 227.284709 167.487164 216.013456 167.487164 204.262496 
C 167.487164 192.511536 162.818458 181.240283 154.509274 172.931099 
C 146.200091 164.621916 134.928838 159.95321 123.177878 159.95321 
C 111.426918 159.95321 100.155665 164.621916 91.846481 172.931099 
C 83.537298 181.240283 78.868592 192.511536 78.868592 204.262496 
C 78.868592 216.013456 83.537298 227.284709 91.846481 235.593892 
C 100.155665 243.903075 111.426918 248.571781 123.177878 248.571781 
L 123.177878 248.571781 
z
" clip-path="url(#pa983906315)" style="fill: none; stroke: #000000; stroke-width: 0.6; stroke-linejoin: miter"/>
   </g>
   <g id="patch_16">
    <path d="M 123.177878 248.342122 
C 132.672264 248.342122 141.779063 244.569962 148.492608 237.856417 
C 155.206153 231.142872 158.978313 222.036073 158.978313 212.541687 
C 158.978313 203.047301 155.206153 193.940501 148.492608 187.226956 
C 141.779063 180.513411 132.672264 176.741252 123.177878 176.741252 
C 113.683491 176.741252 104.576692 180.513411 97.863147 187.226956 
C 91.149602 193.940501 87.377443 203.047301 87.377443 212.541687 
C 87.377443 222.036073 91.149602 231.142872 97.863147 237.856417 
C 104.576692 244.569962 113.683491 248.342122 123.177878 248.342122 
z
" clip-path="url(#pa983906315)" style="fill: #9797bf; stroke: #9797bf; stroke-linejoin: miter"/>
   </g>
   <g id="patch_17">
    <path d="M 123.177878 248.571781 
C 132.733171 248.571781 141.89839 244.775423 148.655002 238.018811 
C 155.411614 231.262199 159.207972 222.09698 159.207972 212.541687 
C 159.207972 202.986394 155.411614 193.821175 148.655002 187.064563 
C 141.89839 180.307951 132.733171 176.511593 123.177878 176.511593 
C 113.622585 176.511593 104.457366 180.307951 97.700754 187.064563 
C 90.944141 193.821175 87.147783 202.986394 87.147783 212.541687 
C 87.147783 222.09698 90.944141 231.262199 97.700754 238.018811 
C 104.457366 244.775423 113.622585 248.571781 123.177878 248.571781 
L 123.177878 248.571781 
z
" clip-path="url(#pa983906315)" style="fill: none; stroke: #000000; stroke-width: 0.6; stroke-linejoin: miter"/>
   </g>
   <g id="patch_18">
    <path d="M 123.177878 248.342122 
C 123.939207 248.342122 124.669456 248.039643 125.207797 247.501302 
C 125.746138 246.962961 126.048617 246.232712 126.048617 245.471383 
C 126.048617 244.710054 125.746138 243.979804 125.207797 243.441463 
C 124.669456 242.903122 123.939207 242.600643 123.177878 242.600643 
C 122.416549 242.600643 121.686299 242.903122 121.147958 243.441463 
C 120.609617 243.979804 120.307138 244.710054 120.307138 245.471383 
C 120.307138 246.232712 120.609617 246.962961 121.147958 247.501302 
C 121.686299 248.039643 122.416549 248.342122 123.177878 248.342122 
z
" clip-path="url(#pa983906315)" style="stroke: #000000; stroke-width: 0.5; stroke-linejoin: miter"/>
   </g>
   <g id="LineCollection_1">
    <path d="M 123.177878 18.453299 
L 295.422251 18.453299 
" clip-path="url(#pa983906315)" style="fill: none; stroke: #000000; stroke-width: 0.6"/>
   </g>
   <g id="LineCollection_2">
    <path d="M 123.177878 43.880472 
L 295.422251 43.880472 
" clip-path="url(#pa983906315)" style="fill: none; stroke: #000000; stroke-width: 0.6"/>
   </g>
   <g id="LineCollection_3">
    <path d="M 123.177878 77.76859 
L 295.422251 77.76859 
" clip-path="url(#pa983906315)" style="fill: none; stroke: #000000; stroke-width: 0.6"/>
   </g>
   <g id="LineCollection_4">
    <path d="M 123.177878 88.328579 
L 295.422251 88.328579 
" clip-path="url(#pa983906315)" style="fill: none; stroke: #000000; stroke-width: 0.6"/>
   </g>
   <g id="LineCollection_5">
    <path d="M 123.177878 117.649468 
L 295.422251 117.649468 
" clip-path="url(#pa983906315)" style="fill: none; stroke: #000000; stroke-width: 0.6"/>
   </g>
   <g id="LineCollection_6">
    <path d="M 123.177878 128.558305 
L 295.422251 128.558305 
" clip-path="url(#pa983906315)" style="fill: none; stroke: #000000; stroke-width: 0.6"/>
   </g>
   <g id="LineCollection_7">
    <path d="M 123.177878 159.95321 
L 295.422251 159.95321 
" clip-path="url(#pa983906315)" style="fill: none; stroke: #000000; stroke-width: 0.6"/>
   </g>
   <g id="LineCollection_8">
    <path d="M 123.177878 176.511593 
L 295.422251 176.511593 
" clip-path="url(#pa983906315)" style="fill: none; stroke: #000000; stroke-width: 0.6"/>
   </g>
   <g id="LineCollection_9">
    <path d="M 123.177878 242.600643 
L 295.422251 242.600643 
" clip-path="url(#pa983906315)" style="fill: none; stroke: #000000; stroke-width: 0.5"/>
   </g>
  </g>
 </g>
 <defs>
  <clipPath id="pa983906315">
   <rect x="7.2" y="7.2" width="357.12" height="242.290418"/>
  </clipPath>
 </defs>
</svg>
